<svg xmlns="http://www.w3.org/2000/svg" version="1.1" xmlns:xlink="http://www.w3.org/1999/xlink" xmlns:svgjs="http://svgjs.dev/svgjs" viewBox="0 0 800 800"><defs><radialGradient id="ccclaymoji-grad-dark" r="93%" cx="20%" cy="20%">
      <stop offset="70%" stop-color="hsl(41, 100%, 67%)" stop-opacity="0"></stop>
      <stop offset="97%" stop-color="#c89924" stop-opacity="1"></stop>
    </radialGradient><radialGradient id="ccclaymoji-grad-light" r="65%" cx="28%" cy="20%">
    <stop offset="0%" stop-color="#fffd88" stop-opacity="0.75"></stop>
    <stop offset="100%" stop-color="hsl(41, 100%, 67%)" stop-opacity="0"></stop>
  </radialGradient><filter id="ccclaymoji-blur" x="-100%" y="-100%" width="400%" height="400%" filterUnits="objectBoundingBox" primitiveUnits="userSpaceOnUse" color-interpolation-filters="sRGB">
	<feGaussianBlur stdDeviation="27" x="0%" y="0%" width="100%" height="100%" in="SourceGraphic" edgeMode="none" result="blur"></feGaussianBlur></filter><filter id="inner-blur" x="-100%" y="-100%" width="400%" height="400%" filterUnits="objectBoundingBox" primitiveUnits="userSpaceOnUse" color-interpolation-filters="sRGB">
	<feGaussianBlur stdDeviation="2" x="0%" y="0%" width="100%" height="100%" in="SourceGraphic" edgeMode="none" result="blur"></feGaussianBlur></filter><filter id="eye-shadow" x="-100%" y="-100%" width="400%" height="400%" filterUnits="objectBoundingBox" primitiveUnits="userSpaceOnUse" color-interpolation-filters="sRGB">
	<feDropShadow stdDeviation="10" dx="10" dy="10" flood-color="#000000" flood-opacity="0.2" x="0%" y="0%" width="100%" height="100%" result="dropShadow"></feDropShadow>
</filter><linearGradient id="eye-light" x1="50%" y1="0%" x2="50%" y2="100%">
      <stop offset="0%" stop-color="#555555" stop-opacity="1"></stop>
      <stop offset="100%" stop-color="hsla(0, 0%, 0%, 1.00)" stop-opacity="0"></stop>
    </linearGradient><linearGradient id="mouth-light" x1="50%" y1="0%" x2="50%" y2="100%">
    <stop offset="0%" stop-color="#ff9667" stop-opacity="1"></stop>
    <stop offset="100%" stop-color="hsl(3, 100%, 51%)" stop-opacity="0"></stop>
  </linearGradient><filter id="mouth-shadow" x="-100%" y="-100%" width="400%" height="400%" filterUnits="objectBoundingBox" primitiveUnits="userSpaceOnUse" color-interpolation-filters="sRGB">
	<feDropShadow stdDeviation="10" dx="10" dy="10" flood-color="#c20000" flood-opacity="0.2" x="0%" y="0%" width="100%" height="100%" result="dropShadow"></feDropShadow>
</filter></defs><g stroke-linecap="round" transform="rotate(360, 400, 400)"><path d="M577 450.0000008225762C577 558.2944213077515 508.2944204851752 646.0835587740587 400 646.0835587740587C291.7060566037736 646.0835587740587 223 558.2944213077515 223 450.0000008225762C223 341.70605742634984 291.7060566037736 253.91644287109375 400 253.91644287109375C508.2944204851752 253.91644287109375 577 341.70605742634984 577 450.0000008225762Z " fill="#c89924" opacity="0.35" filter="url(#ccclaymoji-blur)"></path><path d="M577 399.99999034914197C577 514.4650330841847 514.4650427350427 587.0854604346121 400 587.0854604346121C285.53546153846156 587.0854604346121 223 514.4650330841847 223 399.99999034914197C223 285.5354518876035 285.53546153846156 212.91452026367188 400 212.91452026367188C514.4650427350427 212.91452026367188 577 285.5354518876035 577 399.99999034914197Z " fill="hsl(41, 100%, 67%)"></path><path d="M577 399.99999034914197C577 514.4650330841847 514.4650427350427 587.0854604346121 400 587.0854604346121C285.53546153846156 587.0854604346121 223 514.4650330841847 223 399.99999034914197C223 285.5354518876035 285.53546153846156 212.91452026367188 400 212.91452026367188C514.4650427350427 212.91452026367188 577 285.5354518876035 577 399.99999034914197Z " fill="url(#ccclaymoji-grad-dark)"></path><path d="M577 399.99999034914197C577 514.4650330841847 514.4650427350427 587.0854604346121 400 587.0854604346121C285.53546153846156 587.0854604346121 223 514.4650330841847 223 399.99999034914197C223 285.5354518876035 285.53546153846156 212.91452026367188 400 212.91452026367188C514.4650427350427 212.91452026367188 577 285.5354518876035 577 399.99999034914197Z " fill="url(#ccclaymoji-grad-light)"></path><path d="M307 383.5Q357 337.5 357 383.5 " stroke-width="20" stroke="hsla(0, 0%, 0%, 1.00)" fill="none" filter="url(#eye-shadow)"></path><path d="M307 383.5Q357 337.5 357 383.5 " stroke-width="6.666666666666667" stroke="url(#eye-light)" fill="none" filter="url(#inner-blur)"></path><path d="M434 391.75Q484 332.75 484 391.75 " stroke-width="20" stroke="hsla(0, 0%, 0%, 1.00)" fill="none" filter="url(#eye-shadow)"></path><path d="M434 391.75Q484 332.75 484 391.75 " stroke-width="6.666666666666667" stroke="url(#eye-light)" fill="none" filter="url(#inner-blur)"></path><path d="M347.5 480.75Q369.5 545.75 452.5 480.75 " stroke-width="20" stroke="hsl(3, 100%, 51%)" fill="none" filter="url(#mouth-shadow)" transform="rotate(7, 400, 400)"></path><path d="M347.5 480.75Q369.5 545.75 452.5 480.75 " stroke-width="6.666666666666667" stroke="url(#mouth-light)" fill="none" filter="url(#inner-blur)" transform="rotate(7, 400, 400)"></path></g></svg>
